<svg width="209" height="278" viewBox="0 0 209 278" fill="none" xmlns="http://www.w3.org/2000/svg">
<g filter="url(#filter0_d)">
<path d="M32.6477 0C16.8622 0 4 13.4469 4 29.8171V239.998C4 256.368 16.8622 269.815 32.6477 269.815H104.267V0H32.6477Z" fill="#A5A8AC"/>
<path d="M175.594 0H103.975V269.815H175.594C191.38 269.815 204.242 256.368 204.242 239.998V29.8171C204.534 13.4469 191.672 0 175.594 0Z" fill="#A5A8AC"/>
<path d="M185.826 66.9422C185.826 82.7277 173.548 95.59 158.639 95.59H49.8949C34.6941 95.59 22.7088 82.7277 22.7088 66.9422V51.7414C22.7088 35.9559 34.9864 23.0936 49.8949 23.0936H158.639C173.84 23.0936 185.826 35.9559 185.826 51.7414V66.9422Z" fill="white"/>
<path d="M64.8035 133.3C64.8035 142.946 55.4492 150.547 44.0486 150.547H43.1717C31.771 150.547 22.4166 142.654 22.4166 133.3C22.4166 123.653 31.771 116.053 43.1717 116.053H44.0486C55.4492 116.053 64.8035 123.945 64.8035 133.3Z" fill="white"/>
<path d="M125.314 133.3C125.314 142.946 115.96 150.547 104.56 150.547H103.682C92.2818 150.547 82.9275 142.654 82.9275 133.3C82.9275 123.653 92.2818 116.053 103.682 116.053H104.56C115.96 116.053 125.314 123.945 125.314 133.3Z" fill="white"/>
<path d="M185.825 133.3C185.825 142.946 176.471 150.547 165.07 150.547H164.193C152.793 150.547 143.438 142.654 143.438 133.3C143.438 123.653 152.793 116.053 164.193 116.053H165.07C176.471 116.053 185.825 123.945 185.825 133.3Z" fill="white"/>
<path d="M64.8035 181.826C64.8035 191.472 55.4492 199.073 44.0486 199.073H43.1717C31.771 199.073 22.4166 191.18 22.4166 181.826C22.4166 172.179 31.771 164.579 43.1717 164.579H44.0486C55.4492 164.579 64.8035 172.471 64.8035 181.826Z" fill="white"/>
<path d="M125.314 181.826C125.314 191.472 115.96 199.073 104.56 199.073H103.682C92.2818 199.073 82.9275 191.18 82.9275 181.826C82.9275 172.179 92.2818 164.579 103.682 164.579H104.56C115.96 164.579 125.314 172.471 125.314 181.826Z" fill="white"/>
<path d="M185.825 181.826C185.825 191.472 176.471 199.073 165.07 199.073H164.193C152.793 199.073 143.438 191.18 143.438 181.826C143.438 172.179 152.793 164.579 164.193 164.579H165.07C176.471 164.579 185.825 172.471 185.825 181.826Z" fill="white"/>
<path d="M64.8035 230.644C64.8035 240.29 55.4492 247.891 44.0486 247.891H43.1717C31.771 247.891 22.4166 239.998 22.4166 230.644C22.4166 220.997 31.771 213.397 43.1717 213.397H44.0486C55.4492 213.104 64.8035 220.997 64.8035 230.644Z" fill="#EC2127"/>
<path d="M125.314 230.644C125.314 240.29 115.96 247.891 104.56 247.891H103.682C92.2818 247.891 82.9275 239.998 82.9275 230.644C82.9275 220.997 92.2818 213.397 103.682 213.397H104.56C115.96 213.104 125.314 220.997 125.314 230.644Z" fill="white"/>
<path d="M185.825 230.644C185.825 240.29 176.471 247.891 165.07 247.891H164.193C152.793 247.891 143.438 239.998 143.438 230.644C143.438 220.997 152.793 213.397 164.193 213.397H165.07C176.471 213.104 185.825 220.997 185.825 230.644Z" fill="white"/>
<path d="M163.901 63.7267C163.901 69.8655 158.932 74.835 152.793 74.835C146.654 74.835 141.685 69.8655 141.685 63.7267V54.6646C141.685 48.5258 146.654 43.5563 152.793 43.5563C158.932 43.5563 163.901 48.5258 163.901 54.6646V63.7267ZM153.085 33.9096C143.146 33.9096 134.961 42.0947 134.961 52.0337V66.6499C134.961 76.5889 143.146 84.774 153.085 84.774C163.024 84.774 171.21 76.5889 171.21 66.6499V52.0337C171.21 41.8024 163.024 33.9096 153.085 33.9096Z" fill="#242424"/>
</g>
<defs>
<filter id="filter0_d" x="0" y="0" width="208.247" height="277.815" filterUnits="userSpaceOnUse" color-interpolation-filters="sRGB">
<feFlood flood-opacity="0" result="BackgroundImageFix"/>
<feColorMatrix in="SourceAlpha" type="matrix" values="0 0 0 0 0 0 0 0 0 0 0 0 0 0 0 0 0 0 127 0"/>
<feOffset dy="4"/>
<feGaussianBlur stdDeviation="2"/>
<feColorMatrix type="matrix" values="0 0 0 0 0 0 0 0 0 0 0 0 0 0 0 0 0 0 0.15 0"/>
<feBlend mode="normal" in2="BackgroundImageFix" result="effect1_dropShadow"/>
<feBlend mode="normal" in="SourceGraphic" in2="effect1_dropShadow" result="shape"/>
</filter>
</defs>
</svg>
