<svg width="393" height="386" viewBox="0 0 393 386" fill="none" xmlns="http://www.w3.org/2000/svg">
<path d="M392.298 193.001C392.298 299.696 304.727 385.757 196.522 385.757C88.3168 385.757 0.745972 299.193 0.745972 193.001C0.745972 86.3055 88.3168 0.244615 196.522 0.244615C304.727 -0.258665 392.298 86.3055 392.298 193.001Z" fill="#2F80ED"/>
<path d="M383.742 193.001C383.742 294.663 299.694 377.705 196.522 377.705C92.8463 377.705 9.30176 295.167 9.30176 193.001C9.30176 91.3382 93.3496 8.29688 196.522 8.29688C299.694 8.29688 383.742 90.8349 383.742 193.001Z" fill="#D2EBE0"/>
<path d="M214.137 193.001C214.137 203.066 206.084 211.119 195.515 211.119C185.45 211.119 176.894 203.066 176.894 193.001C176.894 182.935 184.947 174.883 195.515 174.883C206.084 174.883 214.137 182.935 214.137 193.001Z" fill="#EC2127"/>
<path d="M283.589 76.7432L146.194 245.845L155.253 251.885L284.596 77.7495L283.589 76.7432Z" fill="#EC2127"/>
<path d="M202.058 40.0035H190.986V7.29028H202.058V40.0035Z" fill="#2F80ED"/>
<path d="M202.058 377.705H190.483V344.992H202.058V377.705Z" fill="#2F80ED"/>
<path d="M384.245 198.537H351.029V186.961H384.245V198.537Z" fill="#2F80ED"/>
<path d="M41.5114 198.537H8.79822V186.961H41.5114V198.537Z" fill="#2F80ED"/>
<path d="M122.54 124.052C121.533 125.058 120.526 126.065 119.52 127.575L226.215 225.211L232.758 216.655L122.54 124.052Z" fill="#EC2127"/>
</svg>
